<svg width="259" height="34" viewBox="0 0 259 34" fill="none" xmlns="http://www.w3.org/2000/svg">
<path d="M18.7 18.2781H4.89687V29.5656H20.9312V33H0.696875V1.15H20.7125V4.60625H4.89687V14.8438H18.7V18.2781ZM31.5844 1.15L41.9969 27.1375L52.4094 1.15H57.8562V33H53.6562V20.5969L54.05 7.20938L43.5937 33H40.3781L29.9437 7.275L30.3594 20.5969V33H26.1594V1.15H31.5844ZM83.275 18.2781H69.4719V29.5656H85.5062V33H65.2719V1.15H85.2875V4.60625H69.4719V14.8438H83.275V18.2781ZM102.416 20.1156H94.9344V33H90.7125V1.15H101.256C104.844 1.15 107.6 1.96667 109.525 3.6C111.465 5.23333 112.434 7.61042 112.434 10.7313C112.434 12.7146 111.895 14.4427 110.816 15.9156C109.751 17.3885 108.264 18.4896 106.353 19.2188L113.834 32.7375V33H109.328L102.416 20.1156ZM94.9344 16.6813H101.387C103.473 16.6813 105.128 16.1417 106.353 15.0625C107.593 13.9833 108.212 12.5396 108.212 10.7313C108.212 8.7625 107.622 7.25313 106.441 6.20313C105.274 5.15313 103.582 4.62083 101.366 4.60625H94.9344V16.6813ZM141.856 28.8219C140.777 30.3677 139.268 31.5271 137.328 32.3C135.403 33.0583 133.157 33.4375 130.591 33.4375C127.995 33.4375 125.691 32.8323 123.678 31.6219C121.666 30.3969 120.105 28.6615 118.997 26.4156C117.903 24.1698 117.342 21.5667 117.312 18.6063V15.8281C117.312 11.0302 118.428 7.31146 120.659 4.67188C122.905 2.03229 126.055 0.712501 130.109 0.712501C133.434 0.712501 136.11 1.56563 138.137 3.27188C140.165 4.96354 141.404 7.36979 141.856 10.4906H137.656C136.869 6.27604 134.36 4.16875 130.131 4.16875C127.317 4.16875 125.18 5.16042 123.722 7.14375C122.278 9.1125 121.549 11.9708 121.534 15.7188V18.3219C121.534 21.8948 122.351 24.7385 123.984 26.8531C125.618 28.9531 127.827 30.0031 130.612 30.0031C132.187 30.0031 133.566 29.8281 134.747 29.4781C135.928 29.1281 136.905 28.5375 137.678 27.7063V20.5531H130.306V17.1406H141.856V28.8219ZM166.881 18.2781H153.078V29.5656H169.112V33H148.878V1.15H168.894V4.60625H153.078V14.8438H166.881V18.2781ZM198.819 33H194.597L178.563 8.45625V33H174.341V1.15H178.563L194.641 25.8031V1.15H198.819V33ZM229.706 22.8938C229.313 26.2625 228.066 28.8656 225.966 30.7031C223.88 32.526 221.102 33.4375 217.631 33.4375C213.869 33.4375 210.85 32.0885 208.575 29.3906C206.315 26.6927 205.184 23.0833 205.184 18.5625V15.5C205.184 12.5396 205.709 9.93646 206.759 7.69063C207.824 5.44479 209.326 3.72396 211.266 2.52813C213.205 1.31771 215.451 0.712501 218.003 0.712501C221.386 0.712501 224.099 1.66042 226.141 3.55625C228.182 5.4375 229.371 8.04792 229.706 11.3875H225.484C225.12 8.85 224.325 7.0125 223.1 5.875C221.89 4.7375 220.191 4.16875 218.003 4.16875C215.32 4.16875 213.213 5.16042 211.681 7.14375C210.165 9.12708 209.406 11.949 209.406 15.6094V18.6938C209.406 22.15 210.128 24.899 211.572 26.9406C213.016 28.9823 215.035 30.0031 217.631 30.0031C219.965 30.0031 221.751 29.4781 222.991 28.4281C224.245 27.3635 225.076 25.5188 225.484 22.8938H229.706ZM245.172 17.1406L253.484 1.15H258.253L247.272 21.1219V33H243.072V21.1219L232.091 1.15H236.903L245.172 17.1406Z" fill="#FF0000"/>
</svg>
